<?xml version="1.0" standalone="no"?>
<!DOCTYPE svg PUBLIC "-//W3C//DTD SVG 20010904//EN"
 "http://www.w3.org/TR/2001/REC-SVG-20010904/DTD/svg10.dtd">
<svg version="1.0" xmlns="http://www.w3.org/2000/svg"
 width="500.000000pt" height="500.000000pt" viewBox="0 0 500.000000 500.000000"
 preserveAspectRatio="xMidYMid meet">

<g transform="translate(0.000000,500.000000) scale(0.100000,-0.100000)"
fill="#000000" stroke="none">
<path d="M0 2500 l0 -2500 2500 0 2500 0 0 2500 0 2500 -2500 0 -2500 0 0
-2500z m2005 1131 c46 -21 82 -59 120 -129 l26 -49 52 14 c60 16 136 12 233
-14 61 -16 68 -16 134 1 100 25 167 29 227 13 59 -16 59 -16 91 48 26 51 82
106 124 121 139 51 327 -56 374 -214 35 -114 4 -215 -92 -306 l-56 -54 40
-119 c66 -191 122 -440 122 -540 0 -116 -220 -406 -465 -611 -92 -78 -262
-193 -371 -253 l-61 -33 -64 33 c-86 45 -269 166 -349 230 -180 144 -377 373
-459 532 -45 89 -45 71 0 304 17 83 53 219 81 303 l51 153 -56 55 c-31 31 -68
80 -83 110 -49 101 -22 227 70 322 40 42 95 77 146 93 45 14 124 9 165 -10z"/>
<path d="M1850 3537 c-19 -6 -56 -32 -81 -57 -57 -57 -78 -126 -59 -186 16
-47 80 -117 138 -151 30 -18 42 -31 38 -42 -2 -9 -23 -63 -46 -121 -46 -117
-112 -362 -131 -486 l-12 -82 41 -71 c131 -227 377 -463 657 -630 l105 -63 68
37 c174 95 344 227 492 381 102 106 157 179 212 280 l41 75 -23 122 c-28 150
-86 350 -138 478 l-39 95 39 22 c58 34 107 81 129 123 65 128 -46 289 -199
289 -40 0 -86 -40 -117 -99 -23 -46 -53 -79 -89 -98 -14 -8 -30 -6 -60 8 -54
25 -127 24 -231 -2 l-85 -21 -85 21 c-104 26 -160 27 -225 2 -50 -19 -50 -19
-82 2 -17 12 -50 53 -73 91 -58 95 -95 111 -185 83z m110 -142 c19 -27 52 -67
73 -87 29 -30 34 -38 20 -38 -23 0 -56 22 -108 70 -53 50 -75 56 -109 29 -32
-25 -39 -21 -30 15 9 37 51 68 88 64 24 -2 39 -14 66 -53z m1211 26 c16 -16
29 -39 29 -50 0 -26 -5 -26 -30 -1 -30 30 -53 25 -106 -23 -63 -56 -95 -77
-114 -77 -10 1 -6 8 12 21 15 11 40 42 57 69 60 98 99 113 152 61z m-950 -482
c21 -7 48 -23 61 -36 20 -21 20 -25 7 -39 -12 -11 -22 -13 -42 -5 -15 6 -56
16 -93 22 -70 12 -91 32 -59 55 23 17 75 18 126 3z m680 1 c30 -17 25 -50 -8
-51 -16 0 -58 -8 -94 -17 -74 -20 -89 -18 -89 8 0 47 135 89 191 60z m-336
-90 c55 -34 119 -148 146 -257 7 -27 29 -87 51 -134 49 -112 55 -140 33 -176
-18 -31 -94 -86 -133 -98 -18 -5 -31 2 -63 34 -22 22 -38 45 -34 51 4 6 24 18
45 26 33 13 41 23 55 65 32 94 4 119 -89 79 -60 -25 -90 -25 -160 1 -71 28
-86 22 -86 -33 0 -59 18 -89 68 -116 l42 -24 -17 -28 c-9 -16 -31 -36 -48 -46
-30 -16 -34 -16 -70 2 -22 10 -57 36 -78 57 -35 35 -39 43 -34 77 2 21 21 74
42 119 20 45 45 114 56 152 24 88 56 151 105 207 56 66 109 79 169 42z m-354
-50 c39 -21 9 -67 -36 -56 -28 7 -40 27 -31 51 6 17 39 20 67 5z m647 -13 c5
-25 -16 -47 -44 -47 -25 0 -47 29 -36 47 18 27 75 27 80 0z m-317 -614 c34
-20 35 -24 10 -47 -25 -23 -90 -18 -105 7 -9 15 -7 22 13 38 29 23 45 24 82 2z"/>
</g>
</svg>
